:SAMPLES-PER-SECOND 30
:FULLY-SPECIFIED
:DEGREES
18
root  35.00943522 36.51786864 -14.73470222 9.784217834 -0.3967262805 2.794999361
lowerback  -8.075181007 0.4412439167 1.220640302
upperback  -3.760890007 0.1860239953 -2.653589964
thorax  0.6524999738 -0.08262550086 -3.413660049
lowerneck  -15.27470016 2.718960047 1.820369959
upperneck  15.76659966 2.331680059 3.932290077
head  7.340229988 1.509260058 1.226469994
lclavicle  0 -4.497500157e-015 -2.743230041e-014
lhumerus  -44.09479904 25.41489983 71.17919922
lradius  -0.4568948746 -6.507048965e-006 28.86680222
lwrist  4.824992743e-007 -3.790274832e-007 -28.12120247
lhand  -3.509876637e-031 -36.9510994 -10.74730015
lfingers  90 7.125020027 -90
lthumb  94.85549164 -25.57997322 101.1303711
rclavicle  0 -4.497500157e-015 -2.743230041e-014
rhumerus  -43.79180145 -21.99950027 -70.6969986
rradius  -5.16745672e-007 2.214343908e-008 44.32429886
rwrist  1.129822067e-006 0.001802438172 -151.6380005
rhand  -3.003050566e-031 -2.253900051 -7.899950027
rfingers  -90 -7.125020027 -90
rthumb  -86.5965271 -7.800549507 -66.33798981
rfemur  -12.77523518 15.42399216 13.48793602
rtibia  -0.6597075462 0.5436661839 20.52282906
rfoot  -0.3121944666 -19.4530735 -39.20874786
rtoes  4.070858479 19.60653114 -101.9794693
lfemur  -10.31049347 -16.73235321 -18.39884377
ltibia  1.622550845 0.9662655592 15.9712038
lfoot  0.5363992453 -27.8502121 34.25255203
ltoes  -8.749847412 -18.05533791 -116.4087143
19
root  35.00996988 36.51777252 -14.73071331 9.808601379 -0.3464655578 2.790673733
lowerback  -8.05080986 0.4484743774 1.217660546
upperback  -3.760129929 0.1912930012 -2.668940067
thorax  0.6402050257 -0.08273092657 -3.427400112
lowerneck  -15.18980026 2.742539883 1.759870052
upperneck  15.54049969 2.372669935 4.047150135
head  7.248680115 1.534459949 1.273640037
lclavicle  0 -4.497500157e-015 -2.743230041e-014
lhumerus  -44.08280182 25.37290001 71.19869995
lradius  -0.4568948746 -6.507048965e-006 28.89189911
lwrist  4.824992743e-007 -3.790274832e-007 -28.0951004
lhand  -3.506825818e-031 -36.92409897 -10.78789997
lfingers  90 7.125020027 -90
lthumb  94.8514328 -25.6207428 101.1051636
rclavicle  0 -4.497500157e-015 -2.743230041e-014
rhumerus  -43.73289871 -21.3424015 -71.08439636
rradius  -5.16745672e-007 2.214343908e-008 45.1576004
rwrist  1.129822067e-006 0.001802438172 -152.5350037
rhand  -3.011834106e-031 -2.355969906 -7.768260002
rfingers  -90 -7.125020027 -90
rthumb  -86.56182098 -7.915615559 -66.43015289
rfemur  -12.7842226 15.39556789 13.49165154
rtibia  -0.6544517875 0.5567938685 20.51081467
rfoot  -0.3082077205 -19.42279434 -39.22372437
rtoes  4.095572472 19.6071682 -102.0531616
lfemur  -10.3624773 -16.75174522 -18.37658882
ltibia  1.609240413 0.984349072 16.01116371
lfoot  0.5412601829 -27.90632629 34.22006226
ltoes  -8.685248375 -18.08569527 -116.2004547
20
root  35.01094007 36.51787165 -14.72736569 9.819314003 -0.2916840911 2.797546148
lowerback  -8.065360069 0.4478109479 1.247049809
upperback  -3.750169992 0.2008319944 -2.687429905
thorax  0.6592950225 -0.08301620185 -3.462189913
lowerneck  -15.26290035 2.781270027 1.976740003
upperneck  15.53989983 2.425290108 3.796060085
head  7.266910076 1.552399993 1.163650036
lclavicle  0 -4.497500157e-015 -2.743230041e-014
lhumerus  -44.05099869 25.37299919 71.1977005
lradius  -0.4568948746 -6.507048965e-006 28.87440109
lwrist  4.824992743e-007 -3.790274832e-007 -28.10449982
lhand  -3.509023437e-031 -36.96559906 -10.75549984
lfingers  90 7.125020027 -90
lthumb  94.86407471 -25.58751869 101.1466599
rclavicle  0 -4.497500157e-015 -2.743230041e-014
rhumerus  -43.65859985 -20.82740021 -71.35449982
rradius  -5.16745672e-007 2.214343908e-008 45.91669846
rwrist  1.129822067e-006 0.001802438172 -153.6529999
rhand  -3.020947919e-031 -2.505899906 -7.631400108
rfingers  -90 -7.125020027 -90
rthumb  -86.53413391 -8.033126831 -66.56845856
rfemur  -12.7893486 15.38198757 13.4952383
rtibia  -0.6592366099 0.569108367 20.52692986
rfoot  -0.3216726184 -19.40504646 -39.24950409
rtoes  4.069046974 19.60776138 -101.9740677
lfemur  -10.34075832 -16.72226334 -18.3910923
ltibia  1.644161224 1.020521998 15.95855331
lfoot  0.5415703654 -27.95564842 34.17031097
ltoes  -8.680600166 -18.08786964 -116.1854782
21
root  35.01044746 36.51814198 -14.72430642 9.817305565 -0.233279705 2.811636925
lowerback  -8.080539703 0.4468019307 1.235930204
upperback  -3.749550104 0.1936469972 -2.678050041
thorax  0.6677650213 -0.08328707516 -3.447160006
lowerneck  -15.31140041 2.82359004 2.056090117
upperneck  15.49510002 2.485419989 3.708800077
head  7.262330055 1.579669952 1.129140139
lclavicle  0 -4.497500157e-015 -2.743230041e-014
lhumerus  -44.06190109 25.41320038 71.19609833
lradius  -0.4568948746 -6.507048965e-006 28.89369965
lwrist  4.824992743e-007 -3.790274832e-007 -28.1534996
lhand  -3.510584031e-031 -36.96220016 -10.73719978
lfingers  90 7.125020027 -90
lthumb  94.85853577 -25.56964684 101.141304
rclavicle  0 -4.497500157e-015 -2.743230041e-014
rhumerus  -43.56769943 -20.207798 -71.67140198
rradius  -5.16745672e-007 2.214343908e-008 46.79729843
rwrist  1.129822067e-006 0.001802438172 -154.352005
rhand  -3.028642325e-031 -2.642750025 -7.515810013
rfingers  -90 -7.125020027 -90
rthumb  -86.51304626 -8.132058144 -66.69525146
rfemur  -12.78640652 15.35962963 13.49625587
rtibia  -0.6689637899 0.5802577734 20.55606461
rfoot  -0.3439236581 -19.39338493 -39.28135681
rtoes  4.054803848 19.60831451 -101.9316101
lfemur  -10.23446083 -16.70023918 -18.4484539
ltibia  1.735273957 1.074423671 15.81364155
lfoot  0.5639024973 -28.00328827 34.17763901
ltoes  -8.688411713 -18.08836937 -116.21064
22
root  35.00586382 36.5185655 -14.72089272 9.811584473 -0.1593913734 2.815791607
lowerback  -8.097420692 0.4526500106 1.249760509
upperback  -3.753350019 0.1994599998 -2.69611001
thorax  0.6736189723 -0.08334932476 -3.473350048
lowerneck  -15.32380009 2.843420029 2.044980049
upperneck  15.38609982 2.511719942 3.763370037
head  7.227759838 1.596869946 1.150359869
lclavicle  0 -4.497500157e-015 -2.743230041e-014
lhumerus  -44.06620026 25.47629929 71.15010071
lradius  -0.4568948746 -6.507048965e-006 28.8980999
lwrist  4.824992743e-007 -3.790274832e-007 -28.2147007
lhand  -3.516089748e-031 -36.93280029 -10.67510033
lfingers  90 7.125020027 -90
lthumb  94.83143616 -25.50973892 101.1040878
rclavicle  0 -4.497500157e-015 -2.743230041e-014
rhumerus  -43.53490067 -19.77330017 -71.92690277
rradius  -5.16745672e-007 2.214343908e-008 47.6385994
rwrist  1.129822067e-006 0.001802438172 -155.3099976
rhand  -3.033332827e-031 -2.816720009 -7.444779873
rfingers  -90 -7.125020027 -90
rthumb  -86.51689911 -8.188429832 -66.86070251
rfemur  -12.76260185 15.34278202 13.51278782
rtibia  -0.6712918282 0.6051321626 20.56163979
rfoot  -0.3532214463 -19.35717964 -39.31864929
rtoes  4.053312302 19.60882568 -101.9271622
lfemur  -10.16057682 -16.73059464 -18.47559929
ltibia  1.796090841 1.092775464 15.71982765
lfoot  0.5649669766 -27.99106407 34.16333771
ltoes  -8.683989525 -18.08628464 -116.1963959
